<?xml version="1.0" encoding="iso-8859-1"?>
<!-- Generator: Adobe Illustrator 18.1.1, SVG Export Plug-In . SVG Version: 6.00 Build 0)  -->
<svg version="1.1" id="Capa_1" xmlns="http://www.w3.org/2000/svg" xmlns:xlink="http://www.w3.org/1999/xlink" x="0px" y="0px"
	 viewBox="0 0 14.942 14.942" style="enable-background:new 0 0 14.942 14.942;" xml:space="preserve">
<g>
	<path style="fill:#030104;" d="M13.396,12.382c-0.543,0.336-1.108,0.445-1.688,0.361c-0.578-0.08-1.167-0.313-1.74-0.602
		c-0.287-0.148-0.573-0.303-0.854-0.477c-0.29-0.168-0.543-0.338-0.868-0.545C8.117,11.043,7.983,10.971,7.85,10.9
		c-0.055-0.594-0.133-1.535-0.124-2.041c0.012-0.582,0.052-1.167,0.131-1.746c0.079-0.578,0.198-1.153,0.38-1.711
		C8.318,5.16,8.413,4.922,8.521,4.69C8.57,4.678,8.616,4.668,8.663,4.657C8.676,4.66,8.685,4.661,8.698,4.664
		C8.694,4.659,8.69,4.656,8.687,4.651c0.03-0.006,0.061-0.014,0.09-0.021c0.111,0.076,0.214,0.152,0.297,0.237
		C9.2,4.992,9.284,5.13,9.334,5.285C9.385,5.439,9.401,5.614,9.4,5.802C9.401,5.99,9.38,6.187,9.377,6.404
		c0.15-0.156,0.256-0.346,0.318-0.556c0.06-0.209,0.074-0.45-0.001-0.68c-0.072-0.23-0.243-0.431-0.445-0.54
		c-0.043-0.023-0.088-0.042-0.133-0.06c0.218-0.034,0.428-0.053,0.629-0.052c0.392,0,0.738,0.083,1.057,0.246
		c0.319,0.163,0.618,0.409,0.909,0.702c0.294,0.293,0.57,0.631,0.901,0.974c-0.011-0.476-0.141-0.935-0.372-1.361
		c-0.232-0.421-0.584-0.817-1.061-1.059c-0.473-0.247-1.05-0.293-1.535-0.149C9.238,3.988,8.885,4.214,8.623,4.516
		c-0.006,0-0.012,0-0.017,0.001c0.003,0.002,0.006,0.004,0.01,0.006C8.61,4.53,8.605,4.537,8.599,4.543
		C8.597,4.541,8.595,4.538,8.593,4.536C8.608,4.507,8.625,4.478,8.641,4.45c0.321-0.319,0.633-0.587,0.957-0.78
		c0.335-0.202,0.675-0.31,1.031-0.335c0.357-0.025,0.74,0.03,1.142,0.131c0.402,0.099,0.814,0.246,1.275,0.367
		c-0.256-0.402-0.604-0.728-1.022-0.973c-0.417-0.24-0.923-0.397-1.455-0.357c-0.532,0.033-1.05,0.292-1.392,0.666
		C9.069,3.288,8.975,3.417,8.894,3.551c0.008-0.08,0.019-0.16,0.018-0.242C8.91,2.803,8.697,2.263,8.325,1.883
		c-0.369-0.386-0.851-0.608-1.32-0.709C6.53,1.076,6.054,1.085,5.594,1.212C6.018,1.43,6.422,1.597,6.787,1.794
		c0.365,0.193,0.688,0.408,0.936,0.667c0.249,0.258,0.428,0.565,0.542,0.94C8.357,3.7,8.409,4.032,8.437,4.395
		C8.363,4.026,8.18,3.676,7.915,3.379C7.577,3.002,7.061,2.738,6.53,2.7C5.997,2.657,5.49,2.809,5.071,3.046
		C4.651,3.287,4.3,3.609,4.04,4.009c0.462-0.118,0.875-0.261,1.279-0.356c0.401-0.098,0.785-0.15,1.143-0.121
		C6.818,3.56,7.156,3.671,7.49,3.876C7.664,3.982,7.834,4.11,8.003,4.254C7.824,4.235,7.634,4.267,7.47,4.353
		C7.254,4.462,7.094,4.642,6.99,4.834C6.885,5.026,6.826,5.235,6.821,5.451C6.97,5.295,7.096,5.142,7.23,5.009
		c0.132-0.133,0.268-0.245,0.412-0.318c0.145-0.074,0.302-0.112,0.479-0.112c0.072,0,0.148,0.008,0.226,0.018
		C8.193,4.809,8.049,5.031,7.92,5.26C7.619,5.796,7.381,6.366,7.181,6.949C6.982,7.532,6.822,8.128,6.69,8.732
		c-0.086,0.406-0.121,1.049-0.154,1.623c-0.124-0.037-0.248-0.076-0.374-0.107c-0.737-0.178-1.503-0.232-2.248-0.16
		s-1.466,0.266-2.13,0.563C1.125,10.956,0.5,11.331,0,11.84c1.318-0.494,2.659-0.729,3.943-0.662
		c1.286,0.064,2.498,0.467,3.582,1.129c0.263,0.162,0.589,0.371,0.903,0.547c0.319,0.174,0.646,0.34,0.989,0.484
		c0.684,0.281,1.433,0.51,2.244,0.496c0.403-0.008,0.817-0.088,1.193-0.25c0.377-0.16,0.707-0.402,0.973-0.676
		c0.526-0.559,0.853-1.195,1.115-1.852C14.427,11.544,13.946,12.058,13.396,12.382z"/>
</g>
<g>
</g>
<g>
</g>
<g>
</g>
<g>
</g>
<g>
</g>
<g>
</g>
<g>
</g>
<g>
</g>
<g>
</g>
<g>
</g>
<g>
</g>
<g>
</g>
<g>
</g>
<g>
</g>
<g>
</g>
</svg>
